<svg width="12" height="20" viewBox="0 0 12 20" fill="none" xmlns="http://www.w3.org/2000/svg">
<path d="M0.199858 10.461L9.53876 19.7995C9.6724 19.933 9.82619 20 9.99978 20C10.1734 20 10.3272 19.933 10.4607 19.7995L11.4626 18.7974C11.5964 18.6638 11.663 18.5104 11.663 18.3365C11.663 18.1625 11.5964 18.0091 11.4626 17.8755L3.58681 9.99979L11.4626 2.12392C11.5964 1.99034 11.663 1.83662 11.663 1.66318C11.663 1.48932 11.5964 1.3356 11.4626 1.20202L10.4607 0.200327C10.3271 0.0666122 10.1734 0 9.99971 0C9.82612 0 9.6724 0.0667534 9.53876 0.200327L0.200351 9.53885C0.0668468 9.67235 2.38419e-05 9.82614 2.38419e-05 9.99979C2.38419e-05 10.1734 0.0663538 10.3272 0.199858 10.461Z" fill="black"/>
</svg>
