<svg width="136" height="24" viewBox="0 0 136 24" fill="none" xmlns="http://www.w3.org/2000/svg">
<path d="M0.645 2.349H4.0525V8.412L9.152 2.349H13.2175L6.7785 9.775L12.8885 18H8.7525L4.0525 11.6785V18H0.645V2.349ZM17.6608 18.3525C16.4075 18.3525 15.4127 17.8198 14.6763 16.7545C13.94 15.6892 13.5718 14.24 13.5718 12.407C13.5718 10.1823 14.1358 8.49033 15.2638 7.331C16.3918 6.156 18.0133 5.5685 20.1283 5.5685C21.319 5.5685 22.7133 5.7565 24.3113 6.1325V18H21.1623L21.2328 16.073H21.1388C20.7315 16.8093 20.2302 17.3733 19.6348 17.765C19.0552 18.1567 18.3972 18.3525 17.6608 18.3525ZM18.3658 15.462C18.8515 15.462 19.3293 15.2035 19.7993 14.6865C20.2693 14.1695 20.708 13.4802 21.1153 12.6185V8.6705C20.614 8.5295 20.1127 8.459 19.6113 8.459C18.6713 8.459 17.9585 8.78017 17.4728 9.4225C17.0028 10.0648 16.7678 11.0127 16.7678 12.266C16.7678 13.253 16.9088 14.0363 17.1908 14.616C17.4728 15.18 17.8645 15.462 18.3658 15.462ZM30.7419 18.3525C29.9742 18.3525 29.2301 18.2742 28.5094 18.1175C27.8044 17.9608 27.2012 17.7493 26.6999 17.483L27.0054 14.663C27.5381 14.992 28.1256 15.2583 28.7679 15.462C29.4102 15.6657 30.0134 15.7675 30.5774 15.7675C31.1101 15.7675 31.5566 15.6735 31.9169 15.4855C32.2772 15.2818 32.4574 14.992 32.4574 14.616C32.4574 14.3183 32.3321 14.0912 32.0814 13.9345C31.8307 13.7622 31.3529 13.5507 30.6479 13.3L30.0134 13.065C29.3397 12.8143 28.7914 12.5793 28.3684 12.36C27.9454 12.125 27.5616 11.7725 27.2169 11.3025C26.8722 10.8325 26.6999 10.2137 26.6999 9.446C26.6999 8.224 27.1542 7.27617 28.0629 6.6025C28.9872 5.91317 30.1857 5.5685 31.6584 5.5685C32.8177 5.5685 34.0397 5.79567 35.3244 6.25L34.8779 9.0465C34.4236 8.78017 33.9066 8.56867 33.3269 8.412C32.7629 8.23967 32.2302 8.1535 31.7289 8.1535C31.2119 8.1535 30.7967 8.23967 30.4834 8.412C30.1857 8.58433 30.0369 8.835 30.0369 9.164C30.0369 9.47733 30.1622 9.71233 30.4129 9.869C30.6636 10.0257 31.0866 10.2058 31.6819 10.4095C32.1519 10.5818 32.4261 10.6837 32.5044 10.715C33.1624 10.9813 33.7107 11.2398 34.1494 11.4905C34.5881 11.7412 34.9719 12.1172 35.3009 12.6185C35.6299 13.1042 35.7944 13.7308 35.7944 14.4985C35.7944 15.7832 35.3322 16.7467 34.4079 17.389C33.4836 18.0313 32.2616 18.3525 30.7419 18.3525ZM38.256 5.8975H41.4755L41.405 7.472H41.499C41.9063 6.84533 42.3998 6.3675 42.9795 6.0385C43.5748 5.7095 44.2485 5.545 45.0005 5.545C46.3635 5.545 47.4288 6.06983 48.1965 7.1195C48.9798 8.1535 49.3715 9.60267 49.3715 11.467C49.3715 13.676 48.7918 15.3758 47.6325 16.5665C46.4888 17.7415 44.8517 18.329 42.721 18.329C42.4547 18.329 42.0552 18.3133 41.5225 18.282V23.123H38.256V5.8975ZM43.05 15.4385C44.037 15.4385 44.7812 15.1173 45.2825 14.475C45.7995 13.8327 46.058 12.8927 46.058 11.655C46.058 10.6523 45.8935 9.869 45.5645 9.305C45.2512 8.72533 44.8125 8.4355 44.2485 8.4355C43.7472 8.4355 43.2615 8.65483 42.7915 9.0935C42.3215 9.5165 41.8985 10.1275 41.5225 10.9265V15.227C42.0552 15.368 42.5643 15.4385 43.05 15.4385ZM53.1143 0.845H56.8978V3.9H53.1143V0.845ZM51.2813 15.1565H53.5373V8.741H51.2813V5.8975H56.8508V15.1565H58.8718V18H51.2813V15.1565ZM72.1641 5.31H67.8871V2.349H79.8251V5.31H75.5951V18H72.1641V5.31ZM81.0809 5.8975H84.3944V7.8715H84.5824C85.0367 7.0725 85.4832 6.485 85.9219 6.109C86.3762 5.733 86.9402 5.545 87.6139 5.545C87.8959 5.545 88.1309 5.57633 88.3189 5.639L87.9664 9.211C87.5591 9.10133 87.2301 9.0465 86.9794 9.0465C86.6191 9.0465 86.2979 9.117 86.0159 9.258C85.7496 9.399 85.5067 9.587 85.2874 9.822C85.0837 10.057 84.7861 10.4173 84.3944 10.903V18H81.0809V5.8975ZM93.4851 18.3525C92.2317 18.3525 91.2369 17.8198 90.5006 16.7545C89.7642 15.6892 89.3961 14.24 89.3961 12.407C89.3961 10.1823 89.9601 8.49033 91.0881 7.331C92.2161 6.156 93.8376 5.5685 95.9526 5.5685C97.1432 5.5685 98.5376 5.7565 100.136 6.1325V18H96.9866L97.0571 16.073H96.9631C96.5557 16.8093 96.0544 17.3733 95.4591 17.765C94.8794 18.1567 94.2214 18.3525 93.4851 18.3525ZM94.1901 15.462C94.6757 15.462 95.1536 15.2035 95.6236 14.6865C96.0936 14.1695 96.5322 13.4802 96.9396 12.6185V8.6705C96.4382 8.5295 95.9369 8.459 95.4356 8.459C94.4956 8.459 93.7827 8.78017 93.2971 9.4225C92.8271 10.0648 92.5921 11.0127 92.5921 12.266C92.5921 13.253 92.7331 14.0363 93.0151 14.616C93.2971 15.18 93.6887 15.462 94.1901 15.462ZM101.93 5.9445L105.549 5.6155L108.228 14.334L110.79 5.8975H114.338L110.085 18H106.207L101.93 5.9445ZM121.558 18.3525C119.599 18.3525 118.056 17.7885 116.928 16.6605C115.816 15.5325 115.26 13.9658 115.26 11.9605C115.26 10.6602 115.503 9.53217 115.988 8.5765C116.474 7.60517 117.155 6.861 118.033 6.344C118.926 5.827 119.968 5.5685 121.158 5.5685C122.913 5.5685 124.26 6.1325 125.2 7.2605C126.14 8.3885 126.61 10.0178 126.61 12.1485C126.61 12.5088 126.602 12.7752 126.587 12.9475H118.597C118.753 13.7778 119.114 14.4123 119.678 14.851C120.242 15.274 121.002 15.4855 121.957 15.4855C122.537 15.4855 123.14 15.415 123.767 15.274C124.393 15.1173 124.942 14.9137 125.412 14.663L125.952 17.3185C125.326 17.6475 124.628 17.8982 123.861 18.0705C123.109 18.2585 122.341 18.3525 121.558 18.3525ZM123.438 10.4565C123.391 9.78283 123.156 9.25017 122.733 8.8585C122.31 8.45117 121.746 8.2475 121.041 8.2475C120.367 8.2475 119.811 8.44333 119.372 8.835C118.949 9.22667 118.683 9.76717 118.573 10.4565H123.438ZM128.319 15.1565H130.458V3.665H128.437V0.845H133.771V15.1565H135.91V18H128.319V15.1565Z" fill="white"/>
</svg>
